<svg xmlns="http://www.w3.org/2000/svg" viewBox="0 0 256 256" width="256" height="256">
  <defs><linearGradient id="dg" x1="0" y1="0" x2="0" y2="1"><stop offset="0" stop-color="#3AA0FF"/><stop offset="1" stop-color="#0A62E0"/></linearGradient></defs>
  <circle cx="128" cy="22" r="11" fill="#3AA0FF"/>
  <circle cx="160.76" cy="27.19" r="11" fill="#359AFC"/>
  <circle cx="190.31" cy="42.24" r="11" fill="#3094F9"/>
  <circle cx="213.76" cy="65.69" r="11" fill="#2C8DF6"/>
  <circle cx="228.81" cy="95.24" r="11" fill="#2787F3"/>
  <circle cx="234" cy="128" r="11" fill="#2281F0"/>
  <circle cx="228.81" cy="160.76" r="11" fill="#1D7BEC"/>
  <circle cx="213.76" cy="190.31" r="11" fill="#1875E9"/>
  <circle cx="190.31" cy="213.76" r="11" fill="#146EE6"/>
  <circle cx="160.76" cy="228.81" r="11" fill="#0F68E3"/>
  <circle cx="128" cy="234" r="11" fill="#0A62E0"/>
  <circle cx="95.24" cy="228.81" r="11" fill="#0F68E3"/>
  <circle cx="65.69" cy="213.76" r="11" fill="#146EE6"/>
  <circle cx="42.24" cy="190.31" r="11" fill="#1875E9"/>
  <circle cx="27.19" cy="160.76" r="11" fill="#1D7BEC"/>
  <circle cx="22" cy="128" r="11" fill="#2281F0"/>
  <circle cx="27.19" cy="95.24" r="11" fill="#2787F3"/>
  <circle cx="42.24" cy="65.69" r="11" fill="#2C8DF6"/>
  <circle cx="65.69" cy="42.24" r="11" fill="#3094F9"/>
  <circle cx="95.24" cy="27.19" r="11" fill="#359AFC"/>
  <path d="M 92 78 L 122 78 A 50 50 0 0 1 122 178 L 92 178 Z M 112 100 L 119 100 A 28 28 0 0 1 119 156 L 112 156 Z" fill="url(#dg)" fill-rule="evenodd"/>
</svg>

